<svg width="111" height="29" viewBox="0 0 111 29" fill="none" xmlns="http://www.w3.org/2000/svg">
<path d="M16.9998 13.2626C17.0122 12.3067 17.2661 11.3694 17.738 10.538C18.2098 9.70656 18.8844 9.00801 19.6988 8.50732C19.1814 7.76843 18.4989 7.16035 17.7054 6.73138C16.9119 6.30241 16.0293 6.06437 15.1278 6.03617C13.2046 5.83429 11.3401 7.18698 10.36 7.18698C9.36105 7.18698 7.85214 6.05621 6.22729 6.08964C5.17629 6.12359 4.15201 6.42921 3.25425 6.97673C2.35649 7.52424 1.61586 8.29497 1.10453 9.21382C-1.1104 13.0487 0.54174 18.6847 2.66349 21.7846C3.72505 23.3025 4.96571 24.998 6.5891 24.9379C8.17768 24.872 8.77098 23.9249 10.6885 23.9249C12.5883 23.9249 13.1449 24.9379 14.8012 24.8997C16.5059 24.872 17.5798 23.375 18.6042 21.8427C19.3669 20.7612 19.9538 19.5658 20.3432 18.3009C19.3529 17.8821 18.5077 17.1809 17.9132 16.285C17.3187 15.389 17.001 14.3379 16.9998 13.2626Z" fill="#DDEAFA" fill-opacity="0.92"/>
<path d="M13.8725 3.99776C14.8019 2.88202 15.2598 1.44791 15.149 0C13.729 0.149138 12.4174 0.827786 11.4754 1.90072C11.0148 2.42488 10.6621 3.03467 10.4373 3.69524C10.2126 4.3558 10.1202 5.05419 10.1655 5.75047C10.8757 5.75778 11.5784 5.60384 12.2205 5.30024C12.8626 4.99664 13.4275 4.5513 13.8725 3.99776Z" fill="#DDEAFA" fill-opacity="0.92"/>
<path d="M36.0598 21.2475H30.8467L29.5948 24.9441H27.3867L32.3245 11.2676H34.6186L39.5564 24.9441H37.3106L36.0598 21.2475ZM31.3866 19.5417H35.5189L33.4818 13.5424H33.4247L31.3866 19.5417Z" fill="#DDEAFA" fill-opacity="0.92"/>
<path d="M50.2188 19.9576C50.2188 23.0562 48.5603 25.047 46.0576 25.047C45.4236 25.0802 44.7931 24.9341 44.2382 24.6256C43.6834 24.3171 43.2266 23.8585 42.9203 23.3025H42.8729V28.2413H40.8262V14.9714H42.8073V16.6299H42.8449C43.1654 16.0765 43.6299 15.6203 44.1889 15.3099C44.748 14.9995 45.3808 14.8465 46.0199 14.8671C48.5507 14.8671 50.2188 16.8676 50.2188 19.9576ZM48.1151 19.9576C48.1151 17.9388 47.0718 16.6116 45.48 16.6116C43.9162 16.6116 42.8643 17.9668 42.8643 19.9576C42.8643 21.9667 43.9162 23.3122 45.48 23.3122C47.0718 23.3122 48.115 21.9946 48.115 19.9576H48.1151Z" fill="#DDEAFA" fill-opacity="0.92"/>
<path d="M61.194 19.9576C61.194 23.0562 59.535 25.047 57.0322 25.047C56.3982 25.0802 55.7677 24.9341 55.2128 24.6256C54.658 24.3171 54.2012 23.8585 53.8949 23.3025H53.8475V28.2413H51.8008V14.9714H53.7819V16.6299H53.8196C54.14 16.0765 54.6045 15.6203 55.1635 15.3099C55.7226 14.9995 56.3554 14.8465 56.9945 14.8671C59.5253 14.8671 61.194 16.8676 61.194 19.9576ZM59.0897 19.9576C59.0897 17.9388 58.0464 16.6116 56.4546 16.6116C54.8908 16.6116 53.8389 17.9668 53.8389 19.9576C53.8389 21.9667 54.8908 23.3122 56.4546 23.3122C58.0464 23.3122 59.0897 21.9946 59.0897 19.9576Z" fill="#DDEAFA" fill-opacity="0.92"/>
<path d="M68.4487 21.133C68.6004 22.4892 69.9179 23.3797 71.7183 23.3797C73.4435 23.3797 74.6846 22.4892 74.6846 21.2663C74.6846 20.2047 73.9361 19.5691 72.1636 19.1335L70.3911 18.7065C67.8798 18.0999 66.7139 16.9255 66.7139 15.0196C66.7139 12.6599 68.7703 11.0391 71.6893 11.0391C74.5803 11.0391 76.5615 12.6599 76.6281 15.0196H74.562C74.4383 13.6548 73.3101 12.8309 71.6613 12.8309C70.0125 12.8309 68.8843 13.6644 68.8843 14.8776C68.8843 15.8445 69.6049 16.4135 71.3677 16.8491L72.8745 17.219C75.6806 17.8826 76.8454 19.0098 76.8454 21.0103C76.8454 23.569 74.8083 25.1715 71.5666 25.1715C68.5336 25.1715 66.4858 23.6066 66.3535 21.1329L68.4487 21.133Z" fill="#DDEAFA" fill-opacity="0.92"/>
<path d="M81.264 12.6133V14.973H83.1602V16.5938H81.264V22.0909C81.264 22.9448 81.6437 23.3428 82.4772 23.3428C82.7023 23.3389 82.9271 23.3231 83.1505 23.2954V24.9066C82.7758 24.9766 82.3949 25.0083 82.0137 25.0012C79.9949 25.0012 79.2076 24.243 79.2076 22.3092V16.5938H77.7578V14.973H79.2076V12.6133H81.264Z" fill="#DDEAFA" fill-opacity="0.92"/>
<path d="M84.2559 19.9603C84.2559 16.823 86.1036 14.8516 88.985 14.8516C91.876 14.8516 93.7152 16.823 93.7152 19.9603C93.7152 23.1063 91.8857 25.0691 88.985 25.0691C86.0853 25.0691 84.2559 23.1063 84.2559 19.9603ZM91.6297 19.9603C91.6297 17.8082 90.6434 16.538 88.985 16.538C87.3265 16.538 86.3402 17.8179 86.3402 19.9603C86.3402 22.1211 87.3265 23.3816 88.985 23.3816C90.6434 23.3816 91.6297 22.1211 91.6297 19.9603H91.6297Z" fill="#DDEAFA" fill-opacity="0.92"/>
<path d="M95.4043 14.9713H97.3564V16.6685H97.4038C97.5358 16.1384 97.8464 15.67 98.2831 15.3419C98.7199 15.0138 99.2563 14.8461 99.8022 14.867C100.038 14.8661 100.273 14.8918 100.503 14.9433V16.8578C100.206 16.7668 99.895 16.725 99.5838 16.7341C99.2865 16.722 98.99 16.7745 98.7149 16.8878C98.4397 17.0011 98.1923 17.1726 97.9897 17.3906C97.7871 17.6085 97.634 17.8677 97.5411 18.1504C97.4481 18.4331 97.4174 18.7325 97.451 19.0282V24.9426H95.4043L95.4043 14.9713Z" fill="#DDEAFA" fill-opacity="0.92"/>
<path d="M109.94 22.0168C109.665 23.8269 107.902 25.0691 105.646 25.0691C102.746 25.0691 100.945 23.1256 100.945 20.0077C100.945 16.88 102.755 14.8516 105.56 14.8516C108.319 14.8516 110.054 16.7466 110.054 19.77V20.4712H103.011V20.5949C102.979 20.9619 103.025 21.3316 103.146 21.6794C103.268 22.0272 103.461 22.3453 103.715 22.6124C103.969 22.8796 104.277 23.0897 104.618 23.2288C104.959 23.3679 105.326 23.4328 105.694 23.4192C106.177 23.4646 106.663 23.3525 107.078 23.0998C107.493 22.8472 107.815 22.4673 107.997 22.0167L109.94 22.0168ZM103.021 19.0408H108.006C108.025 18.7108 107.975 18.3806 107.859 18.0709C107.744 17.7612 107.566 17.4787 107.336 17.241C107.107 17.0034 106.83 16.8158 106.525 16.69C106.219 16.5642 105.891 16.5029 105.56 16.51C105.227 16.508 104.897 16.5721 104.588 16.6985C104.28 16.8248 104 17.011 103.763 17.2463C103.527 17.4816 103.34 17.7613 103.213 18.0693C103.085 18.3773 103.02 18.7075 103.021 19.0408V19.0408Z" fill="#DDEAFA" fill-opacity="0.92"/>
<path d="M31.1296 0.974254C31.5587 0.943461 31.9892 1.00829 32.3902 1.16405C32.7913 1.31982 33.1527 1.56264 33.4485 1.87501C33.7443 2.18738 33.9671 2.56151 34.1008 2.9704C34.2345 3.3793 34.2758 3.81278 34.2217 4.23956C34.2217 6.339 33.087 7.5458 31.1296 7.5458H28.7559V0.974254H31.1296ZM29.7765 6.61644H31.0155C31.3222 6.63477 31.629 6.5845 31.9138 6.46928C32.1985 6.35406 32.454 6.1768 32.6616 5.9504C32.8692 5.72401 33.0237 5.45417 33.1138 5.16053C33.204 4.86689 33.2275 4.55684 33.1827 4.25296C33.2243 3.95027 33.1983 3.64214 33.1068 3.35066C33.0152 3.05917 32.8604 2.79154 32.6532 2.56695C32.4461 2.34235 32.1919 2.16634 31.9087 2.05154C31.6256 1.93674 31.3206 1.88599 31.0155 1.90292H29.7765V6.61644Z" fill="#DDEAFA" fill-opacity="0.92"/>
<path d="M35.3743 5.06534C35.3432 4.73944 35.3805 4.41061 35.4838 4.09996C35.5872 3.7893 35.7543 3.50367 35.9745 3.2614C36.1947 3.01912 36.4631 2.82554 36.7625 2.69308C37.0619 2.56061 37.3857 2.49219 37.7131 2.49219C38.0405 2.49219 38.3643 2.56061 38.6637 2.69308C38.9631 2.82554 39.2315 3.01912 39.4517 3.2614C39.6719 3.50367 39.839 3.7893 39.9424 4.09996C40.0457 4.41061 40.083 4.73944 40.0518 5.06534C40.0836 5.39159 40.0468 5.72087 39.9437 6.03203C39.8406 6.34318 39.6736 6.62933 39.4533 6.87208C39.233 7.11484 38.9644 7.30882 38.6647 7.44157C38.365 7.57432 38.0409 7.6429 37.7131 7.6429C37.3853 7.6429 37.0611 7.57432 36.7614 7.44157C36.4617 7.30882 36.1931 7.11484 35.9729 6.87208C35.7526 6.62933 35.5856 6.34318 35.4825 6.03203C35.3794 5.72087 35.3426 5.39159 35.3743 5.06534ZM39.0451 5.06534C39.0451 3.99036 38.5622 3.36171 37.7147 3.36171C36.864 3.36171 36.3854 3.99036 36.3854 5.06536C36.3854 6.14896 36.864 6.77276 37.7147 6.77276C38.5622 6.77275 39.0451 6.14464 39.0451 5.06534H39.0451Z" fill="#DDEAFA" fill-opacity="0.92"/>
<path d="M46.2708 7.54521H45.2555L44.2305 3.8927H44.1531L43.1324 7.54521H42.1268L40.7598 2.58594H41.7525L42.6409 6.37016H42.714L43.7336 2.58594H44.6726L45.6922 6.37016H45.7696L46.6537 2.58594H47.6324L46.2708 7.54521Z" fill="#DDEAFA" fill-opacity="0.92"/>
<path d="M48.7793 2.58499H49.7215V3.37281H49.7946C49.9187 3.08985 50.1279 2.85265 50.3932 2.69427C50.6585 2.53589 50.9666 2.46422 51.2745 2.48926C51.5158 2.47111 51.7581 2.5075 51.9835 2.59571C52.2088 2.68392 52.4114 2.82171 52.5762 2.99885C52.7411 3.176 52.864 3.38796 52.9358 3.61905C53.0076 3.85013 53.0265 4.09441 52.9911 4.33379V7.54421H52.0123V4.57957C52.0123 3.7826 51.666 3.38626 50.9422 3.38626C50.7784 3.37863 50.6148 3.40651 50.4628 3.468C50.3107 3.52949 50.1738 3.62313 50.0613 3.7425C49.9488 3.86187 49.8635 4.00414 49.8111 4.15958C49.7588 4.31501 49.7407 4.47992 49.758 4.64301V7.54426H48.7793L48.7793 2.58499Z" fill="#DDEAFA" fill-opacity="0.92"/>
<path d="M54.5508 0.650391H55.5295V7.54562H54.5508V0.650391Z" fill="#DDEAFA" fill-opacity="0.92"/>
<path d="M56.8919 5.06348C56.8607 4.73755 56.898 4.40871 57.0014 4.09804C57.1048 3.78738 57.272 3.50174 57.4922 3.25946C57.7124 3.01718 57.9809 2.8236 58.2803 2.69113C58.5797 2.55866 58.9035 2.49023 59.2309 2.49023C59.5583 2.49023 59.8821 2.55866 60.1816 2.69113C60.481 2.8236 60.7494 3.01718 60.9696 3.25946C61.1899 3.50174 61.357 3.78738 61.4604 4.09804C61.5638 4.40871 61.6011 4.73755 61.5699 5.06348C61.6016 5.38974 61.5648 5.71903 61.4617 6.03018C61.3586 6.34134 61.1915 6.62748 60.9712 6.87022C60.7509 7.11297 60.4823 7.30695 60.1826 7.43969C59.8829 7.57243 59.5587 7.64101 59.2309 7.64101C58.9031 7.64101 58.5789 7.57243 58.2792 7.43969C57.9795 7.30695 57.7109 7.11297 57.4906 6.87022C57.2703 6.62748 57.1033 6.34134 57.0001 6.03018C56.897 5.71903 56.8602 5.38974 56.8919 5.06348ZM60.5627 5.06348C60.5627 3.98849 60.0798 3.35985 59.2323 3.35985C58.3815 3.35985 57.9029 3.9885 57.9029 5.0635C57.9029 6.1471 58.3815 6.7709 59.2323 6.7709C60.0798 6.77089 60.5627 6.14278 60.5627 5.06348H60.5627Z" fill="#DDEAFA" fill-opacity="0.92"/>
<path d="M62.6016 6.14469C62.6016 5.25199 63.2662 4.73736 64.4461 4.66422L65.7894 4.58678V4.15872C65.7894 3.63493 65.4431 3.33917 64.7741 3.33917C64.2278 3.33917 63.8492 3.53975 63.7406 3.89038H62.793C62.893 3.03855 63.6943 2.49219 64.8193 2.49219C66.0626 2.49219 66.7639 3.11114 66.7639 4.15872V7.54718H65.8217V6.85024H65.7443C65.5871 7.10024 65.3664 7.30404 65.1047 7.44084C64.843 7.57764 64.5496 7.64253 64.2547 7.62889C64.0465 7.65055 63.836 7.62834 63.637 7.56369C63.4379 7.49904 63.2546 7.39339 63.0988 7.25356C62.9431 7.11372 62.8183 6.9428 62.7327 6.75181C62.6471 6.56082 62.6024 6.354 62.6016 6.14469ZM65.7894 5.72092V5.30631L64.5784 5.38375C63.8954 5.42945 63.5857 5.66177 63.5857 6.09897C63.5857 6.54531 63.9729 6.80505 64.5053 6.80505C64.6613 6.82084 64.8189 6.80509 64.9687 6.75874C65.1184 6.71238 65.2574 6.63637 65.3772 6.53522C65.497 6.43407 65.5952 6.30985 65.6661 6.16996C65.7369 6.03007 65.7788 5.87736 65.7894 5.72092Z" fill="#DDEAFA" fill-opacity="0.92"/>
<path d="M68.0488 5.06385C68.0488 3.4968 68.8544 2.50409 70.1074 2.50409C70.4173 2.4898 70.7249 2.56404 70.9942 2.71811C71.2635 2.87218 71.4834 3.09973 71.6282 3.37415H71.7013V0.650391H72.6801V7.54562H71.7422V6.76209H71.6648C71.5088 7.03467 71.2813 7.25938 71.0068 7.41189C70.7322 7.56441 70.4212 7.63892 70.1074 7.62735C68.8458 7.62741 68.0488 6.63467 68.0488 5.06385ZM69.0599 5.06385C69.0599 6.11572 69.5557 6.74868 70.3849 6.74868C71.2098 6.74868 71.7197 6.10659 71.7197 5.06816C71.7197 4.03457 71.2045 3.38333 70.3849 3.38333C69.561 3.38333 69.0598 4.02058 69.0598 5.06385H69.0599Z" fill="#DDEAFA" fill-opacity="0.92"/>
<path d="M76.7298 5.06534C76.6986 4.73944 76.7359 4.41061 76.8393 4.09996C76.9426 3.7893 77.1098 3.50367 77.33 3.2614C77.5502 3.01912 77.8186 2.82554 78.118 2.69308C78.4174 2.56061 78.7412 2.49219 79.0686 2.49219C79.396 2.49219 79.7197 2.56061 80.0191 2.69308C80.3185 2.82554 80.5869 3.01912 80.8071 3.2614C81.0274 3.50367 81.1945 3.7893 81.2978 4.09996C81.4012 4.41061 81.4385 4.73944 81.4073 5.06534C81.4391 5.39159 81.4022 5.72087 81.2992 6.03203C81.1961 6.34318 81.029 6.62933 80.8088 6.87208C80.5885 7.11484 80.3199 7.30882 80.0202 7.44157C79.7205 7.57432 79.3963 7.6429 79.0686 7.6429C78.7408 7.6429 78.4166 7.57432 78.1169 7.44157C77.8172 7.30882 77.5486 7.11484 77.3283 6.87208C77.1081 6.62933 76.941 6.34318 76.838 6.03203C76.7349 5.72087 76.698 5.39159 76.7298 5.06534ZM80.4006 5.06534C80.4006 3.99036 79.9177 3.36171 79.0702 3.36171C78.2194 3.36171 77.7408 3.99036 77.7408 5.06536C77.7408 6.14896 78.2195 6.77276 79.0702 6.77276C79.9177 6.77275 80.4006 6.14464 80.4006 5.06534Z" fill="#DDEAFA" fill-opacity="0.92"/>
<path d="M82.7188 2.58499H83.6609V3.37281H83.7341C83.8581 3.08985 84.0674 2.85265 84.3327 2.69427C84.598 2.53589 84.906 2.46422 85.214 2.48926C85.4553 2.47111 85.6976 2.5075 85.9229 2.59571C86.1483 2.68392 86.3509 2.82171 86.5157 2.99885C86.6806 3.176 86.8034 3.38796 86.8753 3.61905C86.9471 3.85013 86.966 4.09441 86.9305 4.33379V7.54421H85.9518V4.57957C85.9518 3.7826 85.6055 3.38626 84.8817 3.38626C84.7178 3.37863 84.5543 3.40651 84.4022 3.468C84.2502 3.52949 84.1132 3.62313 84.0007 3.7425C83.8883 3.86187 83.8029 4.00414 83.7506 4.15958C83.6982 4.31501 83.6801 4.47992 83.6975 4.64301V7.54426H82.7188V2.58499Z" fill="#DDEAFA" fill-opacity="0.92"/>
<path d="M92.4624 1.35156V2.60886H93.5369V3.43326H92.4624V5.98334C92.4624 6.50283 92.6764 6.7303 93.1637 6.7303C93.2884 6.7299 93.413 6.72236 93.5369 6.70771V7.52296C93.3611 7.5544 93.183 7.57113 93.0045 7.57297C91.916 7.57297 91.4826 7.19008 91.4826 6.23393V3.43321H90.6953V2.60881H91.4826V1.35156H92.4624Z" fill="#DDEAFA" fill-opacity="0.92"/>
<path d="M94.873 0.650391H95.8432V3.38332H95.9206C96.0507 3.09772 96.2657 2.85918 96.5363 2.7002C96.8069 2.54123 97.1199 2.46955 97.4328 2.49493C97.6728 2.48187 97.9128 2.52195 98.1356 2.6123C98.3583 2.70266 98.5584 2.84107 98.7216 3.01766C98.8847 3.19424 99.0068 3.40466 99.0793 3.63389C99.1517 3.86311 99.1727 4.10551 99.1407 4.34377V7.54563H98.161V4.58522C98.161 3.79309 97.792 3.39191 97.1005 3.39191C96.9323 3.37812 96.7631 3.40124 96.6047 3.45967C96.4464 3.5181 96.3027 3.61043 96.1838 3.73018C96.0649 3.84994 95.9735 3.99424 95.9162 4.15298C95.8588 4.31173 95.8369 4.48109 95.8518 4.64921V7.54561H94.8731L94.873 0.650391Z" fill="#DDEAFA" fill-opacity="0.92"/>
<path d="M104.848 6.20628C104.715 6.65952 104.427 7.05158 104.034 7.31387C103.641 7.57615 103.168 7.69196 102.699 7.64103C102.372 7.64966 102.047 7.58708 101.747 7.45764C101.447 7.3282 101.179 7.135 100.961 6.89145C100.743 6.6479 100.58 6.35984 100.485 6.04725C100.389 5.73467 100.363 5.40505 100.408 5.08127C100.364 4.7565 100.391 4.42618 100.486 4.11265C100.582 3.79913 100.743 3.50973 100.96 3.26405C101.177 3.01837 101.444 2.82214 101.743 2.68865C102.042 2.55516 102.367 2.48752 102.694 2.49032C104.074 2.49032 104.907 3.43307 104.907 4.99037V5.33189H101.405V5.38673C101.39 5.56872 101.412 5.75191 101.472 5.92455C101.532 6.09718 101.627 6.25546 101.751 6.38922C101.875 6.52299 102.026 6.62929 102.194 6.70131C102.362 6.77334 102.543 6.80949 102.726 6.80747C102.96 6.83557 103.197 6.79342 103.407 6.68636C103.617 6.5793 103.791 6.41218 103.905 6.20624L104.848 6.20628ZM101.405 4.60804H103.91C103.922 4.44159 103.899 4.27441 103.843 4.11723C103.787 3.96005 103.699 3.81634 103.584 3.69535C103.469 3.57436 103.33 3.47876 103.176 3.41469C103.022 3.35062 102.856 3.31949 102.689 3.32332C102.52 3.32119 102.352 3.35297 102.195 3.41679C102.038 3.48061 101.896 3.57517 101.776 3.6949C101.656 3.81463 101.562 3.95711 101.498 4.11394C101.434 4.27076 101.403 4.43876 101.405 4.60804H101.405Z" fill="#DDEAFA" fill-opacity="0.92"/>
</svg>
