<svg width="25" height="24" viewBox="0 0 25 24" fill="none" xmlns="http://www.w3.org/2000/svg">
<path fill-rule="evenodd" clip-rule="evenodd" d="M16.5799 0C16.6866 1.39336 16.246 2.77343 15.3516 3.84713C14.9233 4.37982 14.3797 4.80838 13.7618 5.10054C13.1439 5.3927 12.4677 5.54084 11.7842 5.53381C11.7406 4.86376 11.8295 4.19169 12.0458 3.55601C12.2621 2.92033 12.6015 2.33352 13.0447 1.82911C13.9512 0.796597 15.2135 0.143519 16.5799 0ZM19.0716 10.1412C18.6175 10.9413 18.3732 11.8432 18.3613 12.7631C18.3624 13.7979 18.6681 14.8094 19.2403 15.6716C19.8124 16.5338 20.6257 17.2085 21.5787 17.6116C21.204 18.8288 20.6392 19.9792 19.9052 21.02C18.9195 22.4945 17.886 23.9351 16.2456 23.9617C15.4654 23.9797 14.9388 23.7554 14.39 23.5216C13.8176 23.2778 13.2212 23.0237 12.2878 23.0237C11.2979 23.0237 10.6748 23.286 10.0737 23.5389C9.55434 23.7575 9.05149 23.9691 8.34282 23.9985C6.7806 24.0564 5.58669 22.4247 4.56512 20.964C2.52332 17.9809 0.933426 12.5573 3.0649 8.86689C3.55696 7.98266 4.26969 7.24097 5.13362 6.71409C5.99756 6.18721 6.98325 5.8931 7.99464 5.86042C8.88067 5.84219 9.73088 6.18369 10.4763 6.4831C11.0463 6.71207 11.5551 6.91642 11.9717 6.91642C12.3379 6.91642 12.8325 6.72014 13.4089 6.49138C14.3168 6.13104 15.4277 5.69013 16.5598 5.80897C17.4274 5.83611 18.2767 6.06518 19.0403 6.47799C19.8039 6.89079 20.4607 7.47596 20.9586 8.18701C20.1748 8.66883 19.5257 9.34106 19.0716 10.1412Z" fill="#DDEAFA" fill-opacity="0.92"/>
</svg>
