<svg width="24" height="24" viewBox="0 0 24 24" fill="none" xmlns="http://www.w3.org/2000/svg">
<path fill-rule="evenodd" clip-rule="evenodd" d="M3.14645 7.85363C3.34171 8.04889 3.65829 8.04889 3.85355 7.85363L6 5.70718L6 19.5001C6 19.7762 6.22386 20.0001 6.5 20.0001C6.77614 20.0001 7 19.7762 7 19.5001L7 5.70719L9.14645 7.85363C9.34171 8.04889 9.65829 8.04889 9.85355 7.85363C10.0488 7.65837 10.0488 7.34179 9.85355 7.14652L6.5 3.79297L3.14645 7.14652C2.95118 7.34178 2.95118 7.65837 3.14645 7.85363ZM17 4.50008C17 4.22393 16.7761 4.00007 16.5 4.00007C16.2239 4.00007 16 4.22393 16 4.50007L16 18.293L13.8536 16.1465C13.6583 15.9513 13.3417 15.9513 13.1464 16.1465C12.9512 16.3418 12.9512 16.6584 13.1464 16.8536L16.5 20.2072L19.8536 16.8536C20.0488 16.6584 20.0488 16.3418 19.8536 16.1465C19.6583 15.9513 19.3417 15.9513 19.1464 16.1465L17 18.293L17 4.50008Z" fill="#C4DEFF" fill-opacity="0.5"/>
</svg>
