<svg width="12" height="12" viewBox="0 0 12 12" fill="none" xmlns="http://www.w3.org/2000/svg">
<path d="M1.00938 0.427734C0.45602 0.427734 3.36472e-05 0.885367 3.36472e-05 1.44072V9.20695C-0.000596872 9.2517 0.00763981 9.29612 0.0242649 9.33764C0.0408901 9.37917 0.0655721 9.41696 0.0968767 9.44882C0.128181 9.48069 0.165484 9.50599 0.206617 9.52326C0.24775 9.54053 0.291894 9.54943 0.336481 9.54943C0.381069 9.54943 0.425212 9.54053 0.466345 9.52326C0.507478 9.50599 0.544781 9.48069 0.576086 9.44882C0.607391 9.41696 0.632073 9.37917 0.648698 9.33764C0.665323 9.29612 0.673559 9.2517 0.672929 9.20695V4.4667H11.3271V10.5576C11.3271 10.7505 11.1829 10.8953 10.9907 10.8953H1.00938C0.817165 10.8953 0.672929 10.7505 0.672929 10.5576C0.673559 10.5129 0.665323 10.4684 0.648698 10.4269C0.632073 10.3854 0.607391 10.3476 0.576086 10.3157C0.544781 10.2839 0.507478 10.2586 0.466345 10.2413C0.425212 10.224 0.381069 10.2151 0.336481 10.2151C0.291894 10.2151 0.24775 10.224 0.206617 10.2413C0.165484 10.2586 0.128181 10.2839 0.0968767 10.3157C0.0655721 10.3476 0.0408901 10.3854 0.0242649 10.4269C0.00763981 10.4684 -0.000596872 10.5129 3.36472e-05 10.5576C3.36472e-05 11.113 0.45602 11.5706 1.00938 11.5706H10.9907C11.544 11.5706 12 11.113 12 10.5576V1.44072C12 0.885367 11.544 0.427734 10.9907 0.427734H1.00938ZM1.00938 1.10306H5.11626C5.12832 1.10727 5.1406 1.1108 5.15306 1.11361C5.35965 1.14501 5.53036 1.25076 5.7103 1.43545C5.89025 1.62013 6.06795 1.87759 6.26229 2.15298C6.41063 2.36319 7.57287 3.58717 7.76696 3.79137H0.672929V1.44072C0.672929 1.24782 0.817165 1.10306 1.00938 1.10306ZM6.29908 1.10306H10.9907C11.1829 1.10306 11.3271 1.24782 11.3271 1.44072V3.79137H9.14429C9.12347 3.78763 9.10235 3.78586 9.08121 3.78609C8.51873 3.72507 7.18726 2.29856 6.80901 1.76256C6.65351 1.54219 6.48352 1.31604 6.29908 1.10306ZM2.10082 2.15298C1.91501 2.15298 1.76438 2.30415 1.76438 2.49064C1.76438 2.67713 1.91501 2.8283 2.10082 2.8283C2.28664 2.8283 2.43727 2.67713 2.43727 2.49064C2.43727 2.30415 2.28664 2.15298 2.10082 2.15298ZM3.27839 2.15298C3.09258 2.15298 2.94194 2.30415 2.94194 2.49064C2.94194 2.67713 3.09258 2.8283 3.27839 2.8283C3.46421 2.8283 3.61484 2.67713 3.61484 2.49064C3.61484 2.30415 3.46421 2.15298 3.27839 2.15298ZM4.45596 2.15298C4.27014 2.15298 4.11951 2.30415 4.11951 2.49064C4.11951 2.67713 4.27014 2.8283 4.45596 2.8283C4.64177 2.8283 4.79241 2.67713 4.79241 2.49064C4.79241 2.30415 4.64177 2.15298 4.45596 2.15298Z" fill="#C4DEFF" fill-opacity="0.72"/>
</svg>
