<svg width="24" height="24" viewBox="0 0 24 24" fill="none" xmlns="http://www.w3.org/2000/svg">
<path fill-rule="evenodd" clip-rule="evenodd" d="M21.7563 3.41959C22.0811 3.09484 22.0811 2.56831 21.7563 2.24356C21.4316 1.91881 20.905 1.91881 20.5803 2.24356L12 10.8239L3.41971 2.24356C3.09496 1.91881 2.56844 1.91881 2.24369 2.24356C1.91894 2.56831 1.91894 3.09484 2.24369 3.41959L10.824 11.9999L2.24356 20.5804C1.91881 20.9052 1.91881 21.4317 2.24356 21.7564C2.56831 22.0812 3.09483 22.0812 3.41958 21.7564L12 13.176L20.5804 21.7564C20.9052 22.0812 21.4317 22.0812 21.7564 21.7564C22.0812 21.4317 22.0812 20.9052 21.7564 20.5804L13.176 11.9999L21.7563 3.41959Z" fill="#DDEAFA" fill-opacity="0.92"/>
</svg>
