<svg width="121" height="30" viewBox="0 0 121 30" fill="none" xmlns="http://www.w3.org/2000/svg">
<path d="M36.6816 4.51377C36.6816 5.36559 36.4687 6.11093 35.9363 6.64332C35.2974 7.28219 34.5521 7.60162 33.5938 7.60162C32.6355 7.60162 31.8901 7.28219 31.2513 6.64332C30.6124 6.00446 30.293 5.25911 30.293 4.30081C30.293 3.34251 30.6124 2.59717 31.2513 1.9583C31.8901 1.31943 32.6355 1 33.5938 1C34.0197 1 34.4456 1.10648 34.8715 1.31943C35.2974 1.53239 35.6169 1.74534 35.8298 2.06478L35.2974 2.59717C34.8715 2.06478 34.3391 1.85182 33.5938 1.85182C32.9549 1.85182 32.316 2.06478 31.8901 2.59717C31.3577 3.02308 31.1448 3.66194 31.1448 4.40729C31.1448 5.15263 31.3577 5.7915 31.8901 6.21741C32.4225 6.64332 32.9549 6.96275 33.5938 6.96275C34.3391 6.96275 34.8715 6.7498 35.4039 6.21741C35.7233 5.89798 35.9363 5.47207 35.9363 4.93968H33.5938V4.19433H36.6816C36.6816 4.19433 36.6816 4.40729 36.6816 4.51377Z" fill="#DDEAFA" fill-opacity="0.92" stroke="#DDEAFA" stroke-opacity="0.92" stroke-width="0.2" stroke-miterlimit="10"/>
<path d="M41.5783 1.85081H38.7034V3.87389H41.3653V4.61923H38.7034V6.64231H41.5783V7.49413H37.8516V1.10547H41.5783V1.85081Z" fill="#DDEAFA" fill-opacity="0.92" stroke="#DDEAFA" stroke-opacity="0.92" stroke-width="0.2" stroke-miterlimit="10"/>
<path d="M45.0936 7.49413H44.2418V1.85081H42.4316V1.10547H46.9037V1.85081H45.0936V7.49413Z" fill="#DDEAFA" fill-opacity="0.92" stroke="#DDEAFA" stroke-opacity="0.92" stroke-width="0.2" stroke-miterlimit="10"/>
<path d="M49.9922 7.49413V1.10547H50.844V7.49413H49.9922Z" fill="#DDEAFA" fill-opacity="0.92" stroke="#DDEAFA" stroke-opacity="0.92" stroke-width="0.2" stroke-miterlimit="10"/>
<path d="M54.4627 7.49413H53.6109V1.85081H51.8008V1.10547H56.1664V1.85081H54.3562V7.49413H54.4627Z" fill="#DDEAFA" fill-opacity="0.92" stroke="#DDEAFA" stroke-opacity="0.92" stroke-width="0.2" stroke-miterlimit="10"/>
<path d="M64.5789 6.64332C63.94 7.28219 63.1947 7.60162 62.2364 7.60162C61.2781 7.60162 60.5327 7.28219 59.8938 6.64332C59.255 6.00446 58.9355 5.25911 58.9355 4.30081C58.9355 3.34251 59.255 2.59717 59.8938 1.9583C60.5327 1.31943 61.2781 1 62.2364 1C63.1947 1 63.94 1.31943 64.5789 1.9583C65.2177 2.59717 65.5372 3.34251 65.5372 4.30081C65.5372 5.25911 65.2177 6.00446 64.5789 6.64332ZM60.5327 6.11093C60.9586 6.53684 61.5975 6.85628 62.2364 6.85628C62.8752 6.85628 63.5141 6.64332 63.94 6.11093C64.3659 5.68502 64.6853 5.04615 64.6853 4.30081C64.6853 3.55547 64.4724 2.9166 63.94 2.49069C63.5141 2.06478 62.8752 1.74535 62.2364 1.74535C61.5975 1.74535 60.9586 1.9583 60.5327 2.49069C60.1068 2.9166 59.7874 3.55547 59.7874 4.30081C59.7874 5.04615 60.0003 5.68502 60.5327 6.11093Z" fill="#DDEAFA" fill-opacity="0.92" stroke="#DDEAFA" stroke-opacity="0.92" stroke-width="0.2" stroke-miterlimit="10"/>
<path d="M66.707 7.49413V1.10547H67.6653L70.7532 6.10992V4.83219V1.10547H71.605V7.49413H70.7532L67.4524 2.27672V3.55446V7.49413H66.707Z" fill="#DDEAFA" fill-opacity="0.92" stroke="#DDEAFA" stroke-opacity="0.92" stroke-width="0.2" stroke-miterlimit="10"/>
<mask id="path-8-inside-1_654_29055" fill="white">
<path d="M58.7216 16.8638C56.1662 16.8638 54.1431 18.7804 54.1431 21.4424C54.1431 23.9978 56.1662 26.0209 58.7216 26.0209C61.2771 26.0209 63.3002 24.1043 63.3002 21.4424C63.3002 18.6739 61.2771 16.8638 58.7216 16.8638ZM58.7216 24.1043C57.3374 24.1043 56.1662 22.9331 56.1662 21.3359C56.1662 19.7387 57.3374 18.5675 58.7216 18.5675C60.1059 18.5675 61.2771 19.6323 61.2771 21.3359C61.2771 22.9331 60.1059 24.1043 58.7216 24.1043ZM48.8192 16.8638C46.2638 16.8638 44.2407 18.7804 44.2407 21.4424C44.2407 23.9978 46.2638 26.0209 48.8192 26.0209C51.3747 26.0209 53.3978 24.1043 53.3978 21.4424C53.3978 18.6739 51.3747 16.8638 48.8192 16.8638ZM48.8192 24.1043C47.435 24.1043 46.2638 22.9331 46.2638 21.3359C46.2638 19.7387 47.435 18.5675 48.8192 18.5675C50.2034 18.5675 51.3747 19.6323 51.3747 21.3359C51.3747 22.9331 50.2034 24.1043 48.8192 24.1043ZM37.0002 18.248V20.1646H41.5787C41.4723 21.2294 41.0463 22.0812 40.514 22.6136C39.8751 23.2525 38.8103 23.9978 37.0002 23.9978C34.1253 23.9978 31.9957 21.7618 31.9957 18.8869C31.9957 16.012 34.2318 13.776 37.0002 13.776C38.4909 13.776 39.6621 14.4148 40.514 15.1602L41.8982 13.776C40.7269 12.7112 39.2362 11.8594 37.1067 11.8594C33.2735 11.8594 29.9727 15.0537 29.9727 18.8869C29.9727 22.7201 33.2735 25.9144 37.1067 25.9144C39.2362 25.9144 40.7269 25.2756 42.0046 23.8914C43.2824 22.6136 43.7083 20.8035 43.7083 19.4193C43.7083 18.9934 43.7083 18.5675 43.6018 18.248H37.0002ZM85.3411 19.7387C84.9152 18.674 83.8504 16.8638 81.5079 16.8638C79.1654 16.8638 77.2488 18.6739 77.2488 21.4424C77.2488 23.9978 79.1654 26.0209 81.7208 26.0209C83.7439 26.0209 85.0217 24.7432 85.4476 23.9978L83.9569 22.9331C83.4245 23.6784 82.7856 24.2108 81.7208 24.2108C80.6561 24.2108 80.0172 23.7849 79.4848 22.8266L85.554 20.2711L85.3411 19.7387ZM79.1654 21.2294C79.1654 19.5258 80.5496 18.5675 81.5079 18.5675C82.2532 18.5675 82.9986 18.9934 83.2115 19.5258L79.1654 21.2294ZM74.1609 25.595H76.184V12.2853H74.1609V25.595ZM70.9666 17.8221C70.4342 17.2897 69.5824 16.7574 68.5176 16.7574C66.2816 16.7574 64.152 18.7804 64.152 21.3359C64.152 23.8914 66.1751 25.808 68.5176 25.808C69.5824 25.808 70.4342 25.2756 70.8601 24.7432H70.9666V25.382C70.9666 27.0857 70.0083 28.044 68.5176 28.044C67.3464 28.044 66.4945 27.1922 66.2816 26.4468L64.5779 27.1922C65.1103 28.3634 66.3881 29.8541 68.6241 29.8541C70.9666 29.8541 72.8832 28.4699 72.8832 25.1691V17.0768H70.9666V17.8221ZM68.6241 24.1043C67.2399 24.1043 66.0686 22.9331 66.0686 21.3359C66.0686 19.7387 67.2399 18.5675 68.6241 18.5675C70.0083 18.5675 71.0731 19.7387 71.0731 21.3359C71.0731 22.9331 70.0083 24.1043 68.6241 24.1043ZM94.6047 12.2853H89.8132V25.595H91.8362V20.5905H94.6047C96.8407 20.5905 98.9702 18.9934 98.9702 16.4379C98.9702 13.8825 96.8407 12.2853 94.6047 12.2853ZM94.7111 18.674H91.8362V14.0954H94.7111C96.2018 14.0954 97.0536 15.3731 97.0536 16.3314C96.9472 17.5027 96.0953 18.674 94.7111 18.674ZM106.956 16.7574C105.465 16.7574 103.975 17.3962 103.442 18.7804L105.252 19.5258C105.678 18.7804 106.317 18.5675 107.063 18.5675C108.127 18.5675 109.086 19.2063 109.192 20.2711V20.3776C108.873 20.1646 108.021 19.8452 107.169 19.8452C105.252 19.8452 103.336 20.91 103.336 22.8266C103.336 24.6367 104.933 25.808 106.637 25.808C108.021 25.808 108.66 25.1691 109.192 24.5302H109.299V25.595H111.215V20.4841C111.002 18.1416 109.192 16.7574 106.956 16.7574ZM106.743 24.1043C106.104 24.1043 105.146 23.7849 105.146 22.9331C105.146 21.8683 106.317 21.5489 107.275 21.5489C108.127 21.5489 108.553 21.7618 109.086 21.9748C108.873 23.2525 107.808 24.1043 106.743 24.1043ZM117.923 17.0768L115.687 22.8266H115.581L113.238 17.0768H111.109L114.622 25.1691L112.599 29.6412H114.622L120.053 17.0768H117.923ZM100.035 25.595H102.058V12.2853H100.035V25.595Z"/>
</mask>
<path d="M58.7216 16.8638C56.1662 16.8638 54.1431 18.7804 54.1431 21.4424C54.1431 23.9978 56.1662 26.0209 58.7216 26.0209C61.2771 26.0209 63.3002 24.1043 63.3002 21.4424C63.3002 18.6739 61.2771 16.8638 58.7216 16.8638ZM58.7216 24.1043C57.3374 24.1043 56.1662 22.9331 56.1662 21.3359C56.1662 19.7387 57.3374 18.5675 58.7216 18.5675C60.1059 18.5675 61.2771 19.6323 61.2771 21.3359C61.2771 22.9331 60.1059 24.1043 58.7216 24.1043ZM48.8192 16.8638C46.2638 16.8638 44.2407 18.7804 44.2407 21.4424C44.2407 23.9978 46.2638 26.0209 48.8192 26.0209C51.3747 26.0209 53.3978 24.1043 53.3978 21.4424C53.3978 18.6739 51.3747 16.8638 48.8192 16.8638ZM48.8192 24.1043C47.435 24.1043 46.2638 22.9331 46.2638 21.3359C46.2638 19.7387 47.435 18.5675 48.8192 18.5675C50.2034 18.5675 51.3747 19.6323 51.3747 21.3359C51.3747 22.9331 50.2034 24.1043 48.8192 24.1043ZM37.0002 18.248V20.1646H41.5787C41.4723 21.2294 41.0463 22.0812 40.514 22.6136C39.8751 23.2525 38.8103 23.9978 37.0002 23.9978C34.1253 23.9978 31.9957 21.7618 31.9957 18.8869C31.9957 16.012 34.2318 13.776 37.0002 13.776C38.4909 13.776 39.6621 14.4148 40.514 15.1602L41.8982 13.776C40.7269 12.7112 39.2362 11.8594 37.1067 11.8594C33.2735 11.8594 29.9727 15.0537 29.9727 18.8869C29.9727 22.7201 33.2735 25.9144 37.1067 25.9144C39.2362 25.9144 40.7269 25.2756 42.0046 23.8914C43.2824 22.6136 43.7083 20.8035 43.7083 19.4193C43.7083 18.9934 43.7083 18.5675 43.6018 18.248H37.0002ZM85.3411 19.7387C84.9152 18.674 83.8504 16.8638 81.5079 16.8638C79.1654 16.8638 77.2488 18.6739 77.2488 21.4424C77.2488 23.9978 79.1654 26.0209 81.7208 26.0209C83.7439 26.0209 85.0217 24.7432 85.4476 23.9978L83.9569 22.9331C83.4245 23.6784 82.7856 24.2108 81.7208 24.2108C80.6561 24.2108 80.0172 23.7849 79.4848 22.8266L85.554 20.2711L85.3411 19.7387ZM79.1654 21.2294C79.1654 19.5258 80.5496 18.5675 81.5079 18.5675C82.2532 18.5675 82.9986 18.9934 83.2115 19.5258L79.1654 21.2294ZM74.1609 25.595H76.184V12.2853H74.1609V25.595ZM70.9666 17.8221C70.4342 17.2897 69.5824 16.7574 68.5176 16.7574C66.2816 16.7574 64.152 18.7804 64.152 21.3359C64.152 23.8914 66.1751 25.808 68.5176 25.808C69.5824 25.808 70.4342 25.2756 70.8601 24.7432H70.9666V25.382C70.9666 27.0857 70.0083 28.044 68.5176 28.044C67.3464 28.044 66.4945 27.1922 66.2816 26.4468L64.5779 27.1922C65.1103 28.3634 66.3881 29.8541 68.6241 29.8541C70.9666 29.8541 72.8832 28.4699 72.8832 25.1691V17.0768H70.9666V17.8221ZM68.6241 24.1043C67.2399 24.1043 66.0686 22.9331 66.0686 21.3359C66.0686 19.7387 67.2399 18.5675 68.6241 18.5675C70.0083 18.5675 71.0731 19.7387 71.0731 21.3359C71.0731 22.9331 70.0083 24.1043 68.6241 24.1043ZM94.6047 12.2853H89.8132V25.595H91.8362V20.5905H94.6047C96.8407 20.5905 98.9702 18.9934 98.9702 16.4379C98.9702 13.8825 96.8407 12.2853 94.6047 12.2853ZM94.7111 18.674H91.8362V14.0954H94.7111C96.2018 14.0954 97.0536 15.3731 97.0536 16.3314C96.9472 17.5027 96.0953 18.674 94.7111 18.674ZM106.956 16.7574C105.465 16.7574 103.975 17.3962 103.442 18.7804L105.252 19.5258C105.678 18.7804 106.317 18.5675 107.063 18.5675C108.127 18.5675 109.086 19.2063 109.192 20.2711V20.3776C108.873 20.1646 108.021 19.8452 107.169 19.8452C105.252 19.8452 103.336 20.91 103.336 22.8266C103.336 24.6367 104.933 25.808 106.637 25.808C108.021 25.808 108.66 25.1691 109.192 24.5302H109.299V25.595H111.215V20.4841C111.002 18.1416 109.192 16.7574 106.956 16.7574ZM106.743 24.1043C106.104 24.1043 105.146 23.7849 105.146 22.9331C105.146 21.8683 106.317 21.5489 107.275 21.5489C108.127 21.5489 108.553 21.7618 109.086 21.9748C108.873 23.2525 107.808 24.1043 106.743 24.1043ZM117.923 17.0768L115.687 22.8266H115.581L113.238 17.0768H111.109L114.622 25.1691L112.599 29.6412H114.622L120.053 17.0768H117.923ZM100.035 25.595H102.058V12.2853H100.035V25.595Z" fill="#DDEAFA" fill-opacity="0.92" stroke="#DDEAFA" stroke-opacity="0.92" stroke-width="2" mask="url(#path-8-inside-1_654_29055)"/>
<path d="M0.585123 1.63867C0.26569 1.95811 0.0527344 2.49049 0.0527344 3.12936V26.6609C0.0527344 27.2998 0.26569 27.8322 0.585123 28.1516L0.691601 28.2581L13.8948 15.0549V14.9484V14.8419L0.585123 1.63867Z" fill="url(#paint0_linear_654_29055)"/>
<path d="M18.2601 19.5272L13.8945 15.1616V14.9486V14.8422L18.2601 10.4766L18.3666 10.583L23.584 13.5644C25.0747 14.4162 25.0747 15.8005 23.584 16.6523L18.2601 19.5272Z" fill="url(#paint1_linear_654_29055)"/>
<path d="M18.3677 19.4213L13.8957 14.9492L0.585938 28.2589C1.11833 28.7913 1.86367 28.7913 2.82197 28.3654L18.3677 19.4213Z" fill="url(#paint2_linear_654_29055)"/>
<path d="M18.3677 10.4767L2.82197 1.63908C1.86367 1.10669 1.11833 1.21317 0.585938 1.74556L13.8957 14.9488L18.3677 10.4767Z" fill="url(#paint3_linear_654_29055)"/>
<path opacity="0.2" d="M18.2593 19.3145L2.82002 28.0456C1.9682 28.578 1.22285 28.4715 0.690463 28.0456L0.583984 28.1521L0.690463 28.2586C1.22285 28.6845 1.9682 28.791 2.82002 28.2586L18.2593 19.3145Z" fill="black"/>
<path opacity="0.12" d="M0.584114 28.0473C0.26468 27.7279 0.158203 27.1955 0.158203 26.5566V26.6631C0.158203 27.302 0.371159 27.8344 0.690592 28.1538V28.0473H0.584114Z" fill="black"/>
<path opacity="0.12" d="M23.5837 16.3334L18.2598 19.3148L18.3662 19.4213L23.5837 16.4399C24.329 16.014 24.6484 15.4816 24.6484 14.9492C24.6484 15.4816 24.2225 15.9075 23.5837 16.3334Z" fill="black"/>
<path opacity="0.25" d="M2.82015 1.74557L23.5833 13.5646C24.2222 13.9905 24.6481 14.4164 24.6481 14.9488C24.6481 14.4164 24.3287 13.884 23.5833 13.4581L2.82015 1.63909C1.32946 0.787265 0.158203 1.53261 0.158203 3.23625V3.34273C0.158203 1.63909 1.32946 0.893744 2.82015 1.74557Z" fill="#DDEAFA" fill-opacity="0.92"/>
<defs>
<linearGradient id="paint0_linear_654_29055" x1="12.7233" y1="2.92673" x2="-5.14625" y2="20.7963" gradientUnits="userSpaceOnUse">
<stop stop-color="#00A0FF"/>
<stop offset="0.00657445" stop-color="#00A1FF"/>
<stop offset="0.2601" stop-color="#00BEFF"/>
<stop offset="0.5122" stop-color="#00D2FF"/>
<stop offset="0.7604" stop-color="#00DFFF"/>
<stop offset="1" stop-color="#00E3FF"/>
</linearGradient>
<linearGradient id="paint1_linear_654_29055" x1="25.5372" y1="14.9502" x2="-0.227078" y2="14.9502" gradientUnits="userSpaceOnUse">
<stop stop-color="#FFE000"/>
<stop offset="0.4087" stop-color="#FFBD00"/>
<stop offset="0.7754" stop-color="#FFA500"/>
<stop offset="1" stop-color="#FF9C00"/>
</linearGradient>
<linearGradient id="paint2_linear_654_29055" x1="15.9475" y1="17.3941" x2="-8.28504" y2="41.6266" gradientUnits="userSpaceOnUse">
<stop stop-color="#FF3A44"/>
<stop offset="1" stop-color="#C31162"/>
</linearGradient>
<linearGradient id="paint3_linear_654_29055" x1="-2.71775" y1="-6.15914" x2="8.10316" y2="4.66166" gradientUnits="userSpaceOnUse">
<stop stop-color="#32A071"/>
<stop offset="0.0685" stop-color="#2DA771"/>
<stop offset="0.4762" stop-color="#15CF74"/>
<stop offset="0.8009" stop-color="#06E775"/>
<stop offset="1" stop-color="#00F076"/>
</linearGradient>
</defs>
</svg>
