<svg width="20" height="20" viewBox="0 0 20 20" fill="none" xmlns="http://www.w3.org/2000/svg">
<path d="M10 20C15.5228 20 20 15.5228 20 10C20 4.47715 15.5228 0 10 0C4.47715 0 0 4.47715 0 10C0 15.5228 4.47715 20 10 20Z" fill="url(#paint0_linear_290_9863)"/>
<path fill-rule="evenodd" clip-rule="evenodd" d="M4.38666 10.2769C7.31504 8.99392 9.26776 8.14813 10.2448 7.73949C13.0345 6.57272 13.6141 6.37005 13.9919 6.36335C14.075 6.36188 14.2608 6.38259 14.3812 6.48079C14.4828 6.56371 14.5108 6.67572 14.5242 6.75434C14.5375 6.83295 14.5542 7.01205 14.541 7.15198C14.3898 8.74919 13.7357 12.6252 13.4029 14.4141C13.2621 15.171 12.9848 15.4248 12.7164 15.4497C12.133 15.5037 11.6901 15.062 11.1251 14.6896C10.241 14.1068 9.74151 13.7441 8.88333 13.1754C7.89155 12.5182 8.53448 12.157 9.09969 11.5667C9.24761 11.4122 11.8178 9.06139 11.8676 8.84814C11.8738 8.82147 11.8796 8.72205 11.8208 8.66955C11.7621 8.61706 11.6754 8.63501 11.6129 8.64929C11.5242 8.66952 10.1118 9.60824 7.37574 11.4654C6.97484 11.7422 6.61172 11.8771 6.28637 11.87C5.92771 11.8623 5.23778 11.6661 4.72489 11.4985C4.09581 11.2929 3.59582 11.1841 3.63936 10.8349C3.66204 10.653 3.91114 10.467 4.38666 10.2769Z" fill="white"/>
<defs>
<linearGradient id="paint0_linear_290_9863" x1="10" y1="0" x2="10" y2="19.8517" gradientUnits="userSpaceOnUse">
<stop stop-color="#2AABEE"/>
<stop offset="1" stop-color="#229ED9"/>
</linearGradient>
</defs>
</svg>
