<svg width="25" height="24" viewBox="0 0 25 24" fill="none" xmlns="http://www.w3.org/2000/svg">
<path d="M12.5 0C5.88251 0 0.5 5.38251 0.5 12C0.5 18.6175 5.88251 24 12.5 24C19.1175 24 24.5 18.6175 24.5 12C24.5 5.38251 19.1175 0 12.5 0ZM11.6628 1.81395V5.57267H8.75872C9.43877 3.65628 10.4306 2.25279 11.6628 1.81395ZM13.3372 1.81395C14.5694 2.25279 15.5612 3.65628 16.2413 5.57267H13.3372V1.81395ZM8.63663 2.42442C8.0232 3.29188 7.49856 4.3564 7.0843 5.57267H4.4157C5.51766 4.18675 6.96767 3.09654 8.63663 2.42442ZM16.3634 2.42442C18.0323 3.09654 19.4823 4.18675 20.5843 5.57267H17.9157C17.5014 4.3564 16.9768 3.29188 16.3634 2.42442ZM3.3343 7.24709H6.60465C6.32402 8.45829 6.1508 9.77719 6.09884 11.1541H2.2093C2.32254 9.75388 2.72013 8.43238 3.3343 7.24709ZM8.27035 7.24709H11.6628V11.1541H7.77326C7.82355 9.78326 7.99206 8.45268 8.27035 7.24709ZM13.3372 7.24709H16.7297C17.0079 8.45268 17.1765 9.78326 17.2267 11.1541H13.3372V7.24709ZM18.3953 7.24709H21.6657C22.2799 8.43238 22.6775 9.75388 22.7907 11.1541H18.9012C18.8492 9.77719 18.676 8.45829 18.3953 7.24709ZM2.2093 12.8285H6.09884C6.14931 14.2084 6.32448 15.5221 6.60465 16.7355H3.32558C2.71403 15.5497 2.32015 14.2283 2.2093 12.8285ZM7.77326 12.8285H11.6628V16.7355H8.27035C7.99249 15.5291 7.82296 14.1998 7.77326 12.8285ZM13.3372 12.8285H17.2267C17.177 14.1998 17.0075 15.5291 16.7297 16.7355H13.3372V12.8285ZM18.9012 12.8285H22.7907C22.6798 14.2283 22.286 15.5497 21.6744 16.7355H18.3953C18.6755 15.5221 18.8507 14.2084 18.9012 12.8285ZM4.40698 18.4099H7.07558C7.49077 19.6325 8.02012 20.7051 8.63663 21.5756C6.96297 20.9015 5.51007 19.8014 4.40698 18.4099ZM8.75 18.4099H11.6628V22.1773C10.4284 21.7377 9.43012 20.3315 8.75 18.4099ZM13.3372 18.4099H16.25C15.5699 20.3315 14.5716 21.7377 13.3372 22.1773V18.4099ZM17.9244 18.4099H20.593C19.4899 19.8014 18.037 20.9015 16.3634 21.5756C16.9799 20.7051 17.5092 19.6325 17.9244 18.4099Z" fill="#DDEAFA" fill-opacity="0.92"/>
</svg>
