<svg width="12" height="12" viewBox="0 0 12 12" fill="none" xmlns="http://www.w3.org/2000/svg">
<path d="M11.0328 5.28235C10.875 5.28235 10.7236 5.34504 10.612 5.45662C10.5005 5.56821 10.4378 5.71955 10.4378 5.87735V9.90552H1.7359V1.52399H5.60039C5.7582 1.52399 5.90954 1.4613 6.02112 1.34972C6.13271 1.23813 6.1954 1.08679 6.1954 0.928987C6.1954 0.771183 6.13271 0.619841 6.02112 0.508256C5.90954 0.396672 5.7582 0.333984 5.60039 0.333984H1.1409C0.983097 0.333984 0.831755 0.396672 0.72017 0.508256C0.608586 0.619841 0.545898 0.771183 0.545898 0.928987V10.5005C0.545898 10.6583 0.608586 10.8097 0.72017 10.9213C0.831755 11.0328 0.983097 11.0955 1.1409 11.0955H11.0328C11.1906 11.0955 11.3419 11.0328 11.4535 10.9213C11.5651 10.8097 11.6278 10.6583 11.6278 10.5005V5.87735C11.6278 5.71955 11.5651 5.56821 11.4535 5.45662C11.3419 5.34504 11.1906 5.28235 11.0328 5.28235Z" fill="#C4DEFF" fill-opacity="0.32"/>
<path d="M11.5827 0.000497764H8.88942C8.78391 0.000497764 8.68272 0.0424229 8.60812 0.117051C8.53351 0.191678 8.4916 0.292895 8.4916 0.398435C8.4916 0.503974 8.53351 0.605192 8.60812 0.679819C8.68272 0.754447 8.78391 0.796372 8.88942 0.796372H10.6399L6.66158 4.77574C6.58749 4.8503 6.5459 4.95116 6.5459 5.05629C6.5459 5.16142 6.58749 5.26228 6.66158 5.33684C6.69857 5.37413 6.74257 5.40374 6.79105 5.42394C6.83953 5.44414 6.89152 5.45455 6.94404 5.45455C6.99656 5.45455 7.04856 5.44414 7.09704 5.42394C7.14552 5.40374 7.18952 5.37413 7.2265 5.33684L11.2048 1.35746V3.06859C11.2048 3.17413 11.2467 3.27535 11.3213 3.34998C11.3959 3.42461 11.4971 3.46653 11.6026 3.46653C11.7081 3.46653 11.8093 3.42461 11.8839 3.34998C11.9585 3.27535 12.0004 3.17413 12.0004 3.06859V0.398435C12.0005 0.34446 11.9896 0.291035 11.9684 0.241411C11.9472 0.191786 11.9161 0.147001 11.877 0.109776C11.8379 0.072552 11.7917 0.0436679 11.7411 0.0248816C11.6905 0.00609523 11.6366 -0.00220104 11.5827 0.000497764Z" fill="#DDEAFA" fill-opacity="0.92"/>
</svg>
