<svg width="24" height="24" viewBox="0 0 24 24" fill="none" xmlns="http://www.w3.org/2000/svg">
<path d="M23.4955 6.64545C23.2227 5.60909 22.4045 4.79091 21.3682 4.50455C19.5 4 12 4 12 4C12 4 4.5 4 2.61818 4.50455C1.58182 4.77727 0.777273 5.59545 0.490909 6.64545C0 8.52727 0 12.4545 0 12.4545C0 12.4545 0 16.3818 0.504545 18.2636C0.777273 19.3 1.59545 20.1182 2.63182 20.4045C4.5 20.9091 12 20.9091 12 20.9091C12 20.9091 19.5 20.9091 21.3818 20.4045C22.4182 20.1318 23.2227 19.3136 23.5091 18.2636C24 16.3818 24 12.4545 24 12.4545C24 12.4545 24 8.52727 23.4955 6.64545Z" fill="#FF0000"/>
<path d="M9.54492 16.0263L15.8176 12.4536L9.54492 8.88086V16.0263Z" fill="white"/>
</svg>
