<svg width="12" height="12" viewBox="0 0 12 12" fill="none" xmlns="http://www.w3.org/2000/svg">
<path d="M1.00938 0.5C0.45602 0.5 3.36472e-05 0.951766 3.36472e-05 1.5V9.16667C-0.000596872 9.21084 0.00763981 9.25469 0.0242649 9.29568C0.0408901 9.33667 0.0655721 9.37398 0.0968767 9.40543C0.128181 9.43689 0.165484 9.46187 0.206617 9.47892C0.24775 9.49597 0.291894 9.50475 0.336481 9.50475C0.381069 9.50475 0.425212 9.49597 0.466345 9.47892C0.507478 9.46187 0.544781 9.43689 0.576086 9.40543C0.607391 9.37398 0.632073 9.33667 0.648698 9.29568C0.665323 9.25469 0.673559 9.21084 0.672929 9.16667V4.48718H11.3271V10.5C11.3271 10.6904 11.1829 10.8333 10.9907 10.8333H1.00938C0.817165 10.8333 0.672929 10.6904 0.672929 10.5C0.673559 10.4558 0.665323 10.412 0.648698 10.371C0.632073 10.33 0.607391 10.2927 0.576086 10.2612C0.544781 10.2298 0.507478 10.2048 0.466345 10.1877C0.425212 10.1707 0.381069 10.1619 0.336481 10.1619C0.291894 10.1619 0.24775 10.1707 0.206617 10.1877C0.165484 10.2048 0.128181 10.2298 0.0968767 10.2612C0.0655721 10.2927 0.0408901 10.33 0.0242649 10.371C0.00763981 10.412 -0.000596872 10.4558 3.36472e-05 10.5C3.36472e-05 11.0482 0.45602 11.5 1.00938 11.5H10.9907C11.544 11.5 12 11.0482 12 10.5V1.5C12 0.951766 11.544 0.5 10.9907 0.5H1.00938ZM1.00938 1.16667H5.11626C5.12832 1.17083 5.1406 1.17431 5.15306 1.17708C5.35965 1.20808 5.53036 1.31247 5.7103 1.49479C5.89025 1.67711 6.06795 1.93126 6.26229 2.20312C6.41063 2.41064 7.57287 3.61893 7.76696 3.82051H0.672929V1.5C0.672929 1.30957 0.817165 1.16667 1.00938 1.16667ZM6.29908 1.16667H10.9907C11.1829 1.16667 11.3271 1.30957 11.3271 1.5V3.82051H9.14429C9.12347 3.81682 9.10235 3.81507 9.08121 3.8153C8.51873 3.75507 7.18726 2.34684 6.80901 1.81771C6.65351 1.60017 6.48352 1.37692 6.29908 1.16667ZM2.10082 2.20312C1.91501 2.20312 1.76438 2.35236 1.76438 2.53646C1.76438 2.72055 1.91501 2.86979 2.10082 2.86979C2.28664 2.86979 2.43727 2.72055 2.43727 2.53646C2.43727 2.35236 2.28664 2.20312 2.10082 2.20312ZM3.27839 2.20312C3.09258 2.20312 2.94194 2.35236 2.94194 2.53646C2.94194 2.72055 3.09258 2.86979 3.27839 2.86979C3.46421 2.86979 3.61484 2.72055 3.61484 2.53646C3.61484 2.35236 3.46421 2.20312 3.27839 2.20312ZM4.45596 2.20312C4.27014 2.20312 4.11951 2.35236 4.11951 2.53646C4.11951 2.72055 4.27014 2.86979 4.45596 2.86979C4.64177 2.86979 4.79241 2.72055 4.79241 2.53646C4.79241 2.35236 4.64177 2.20312 4.45596 2.20312Z" fill="#C4DEFF" fill-opacity="0.72"/>
</svg>
