<svg width="44" height="44" viewBox="0 0 44 44" fill="none" xmlns="http://www.w3.org/2000/svg">
<path d="M17.8705 27.0852C17.6077 27.0852 17.3822 26.9911 17.194 26.8029C17.0058 26.6147 16.9117 26.3892 16.9117 26.1264C16.9117 25.8636 17.0058 25.6381 17.194 25.4499C17.3822 25.2617 17.6077 25.1676 17.8705 25.1676C18.1333 25.1676 18.3588 25.2617 18.547 25.4499C18.7352 25.6381 18.8293 25.8636 18.8293 26.1264C18.8293 26.3004 18.7849 26.4602 18.6961 26.6058C18.6109 26.7514 18.4955 26.8686 18.3499 26.9574C18.2078 27.0426 18.048 27.0852 17.8705 27.0852ZM22.0013 27.0852C21.7385 27.0852 21.5131 26.9911 21.3248 26.8029C21.1366 26.6147 21.0425 26.3892 21.0425 26.1264C21.0425 25.8636 21.1366 25.6381 21.3248 25.4499C21.5131 25.2617 21.7385 25.1676 22.0013 25.1676C22.2641 25.1676 22.4896 25.2617 22.6778 25.4499C22.866 25.6381 22.9601 25.8636 22.9601 26.1264C22.9601 26.3004 22.9157 26.4602 22.827 26.6058C22.7417 26.7514 22.6263 26.8686 22.4807 26.9574C22.3387 27.0426 22.1789 27.0852 22.0013 27.0852ZM26.1322 27.0852C25.8694 27.0852 25.6439 26.9911 25.4557 26.8029C25.2675 26.6147 25.1734 26.3892 25.1734 26.1264C25.1734 25.8636 25.2675 25.6381 25.4557 25.4499C25.6439 25.2617 25.8694 25.1676 26.1322 25.1676C26.395 25.1676 26.6205 25.2617 26.8087 25.4499C26.9969 25.6381 27.091 25.8636 27.091 26.1264C27.091 26.3004 27.0466 26.4602 26.9578 26.6058C26.8726 26.7514 26.7572 26.8686 26.6116 26.9574C26.4695 27.0426 26.3097 27.0852 26.1322 27.0852Z" fill="#C4DEFF" fill-opacity="0.32"/>
</svg>
