<svg width="24" height="24" viewBox="0 0 24 24" fill="none" xmlns="http://www.w3.org/2000/svg">
<path d="M13.5374 11.8153C13.5374 15.5792 10.5069 18.6303 6.76884 18.6303C3.03073 18.6303 0 15.5785 0 11.8153C0 8.05212 3.0305 5 6.76884 5C10.5072 5 13.5374 8.05143 13.5374 11.8153Z" fill="white"/>
<path d="M20.9622 11.8145C20.9622 15.3574 19.4469 18.2306 17.5778 18.2306C15.7086 18.2306 14.1934 15.3574 14.1934 11.8145C14.1934 8.27164 15.7084 5.39844 17.5775 5.39844C19.4467 5.39844 20.962 8.27072 20.962 11.8145" fill="white"/>
<path d="M23.9995 11.8142C23.9995 14.9877 23.4667 17.562 22.8092 17.562C22.1517 17.562 21.6191 14.9884 21.6191 11.8142C21.6191 8.63996 22.152 6.06641 22.8092 6.06641C23.4665 6.06641 23.9995 8.63973 23.9995 11.8142Z" fill="white"/>
</svg>
