<svg width="24" height="24" viewBox="0 0 24 24" fill="none" xmlns="http://www.w3.org/2000/svg">
<path fill-rule="evenodd" clip-rule="evenodd" d="M11.9694 2C6.46483 2 2 6.35986 2 11.735C2 16.0352 4.87462 19.6783 8.78899 20.9923C9.27829 21.052 9.46177 20.7534 9.46177 20.5145C9.46177 20.2756 9.46177 19.6783 9.46177 18.8422C6.70948 19.4394 6.09786 17.5283 6.09786 17.5283C5.66972 16.3935 4.99694 16.0949 4.99694 16.0949C4.07951 15.4977 5.0581 15.4977 5.0581 15.4977C6.0367 15.5574 6.58716 16.513 6.58716 16.513C7.50459 18.0061 8.91131 17.588 9.46177 17.3491C9.52294 16.6921 9.82875 16.2741 10.0734 16.0352C7.87156 15.7963 5.5474 14.9601 5.5474 11.1975C5.5474 10.1225 5.91437 9.28634 6.58716 8.56965C6.52599 8.39048 6.15902 7.37517 6.70948 6.06124C6.70948 6.06124 7.56575 5.82234 9.46177 7.07655C10.2569 6.83765 11.1131 6.77793 11.9694 6.77793C12.8257 6.77793 13.682 6.89738 14.4771 7.07655C16.3731 5.82234 17.2294 6.06124 17.2294 6.06124C17.7798 7.37517 17.4128 8.39048 17.3517 8.62938C17.9633 9.28634 18.3914 10.1822 18.3914 11.2572C18.3914 15.0199 16.0673 15.7963 13.8654 16.0352C14.2324 16.3338 14.5382 16.931 14.5382 17.8269C14.5382 19.1408 14.5382 20.1561 14.5382 20.5145C14.5382 20.7534 14.7217 21.052 15.211 20.9923C19.1865 19.6783 22 16.0352 22 11.735C21.9388 6.35986 17.474 2 11.9694 2Z" fill="white"/>
</svg>
