<svg width="149" height="30" viewBox="0 0 149 30" fill="none" xmlns="http://www.w3.org/2000/svg">
<path d="M50.8773 12.2133C50.8773 13.6095 49.7542 13.9107 47.2777 14.3487C43.4765 15.0331 41 15.8545 41 19.0303C41 21.3847 42.8718 23 45.8379 23C48.2568 23 49.8982 22.1787 50.8197 20.8646H50.8773C51.2805 22.3977 52.1156 22.7536 53.4978 22.7536C53.9298 22.7536 54.2465 22.7262 54.8513 22.5346V21.0014C53.3826 21.1657 53.1811 20.5634 53.1811 19.4683V12.6787C53.1811 9.31124 50.6757 8.27089 47.8824 8.27089C43.6205 8.27089 41.8639 10.2968 41.7199 12.9798H44.0237C44.1677 10.9539 45.0892 10.1873 47.8824 10.1873C50.2438 10.1873 50.8773 11.1182 50.8773 12.2133ZM46.0682 21.0836C44.1677 21.0836 43.3037 20.2896 43.3037 18.9207C43.3037 17.2507 44.6284 16.5663 47.4793 15.9914C49.0343 15.6902 50.4454 15.3069 50.8773 14.8963V17.2233C50.8773 19.9063 48.8039 21.0836 46.0682 21.0836Z" fill="#DDEAFA" fill-opacity="0.92"/>
<path d="M63.684 10.5706V8.65418H60.8043V4H58.5006V8.65418H56.3408V10.5706H58.5006V19.1945C58.5006 22.0418 59.998 22.781 61.9562 22.781C62.5609 22.781 63.1657 22.7262 63.684 22.6167V20.7003C61.7258 20.8372 60.8043 20.5634 60.8043 18.9755V10.5706H63.684Z" fill="#DDEAFA" fill-opacity="0.92"/>
<path d="M73.3168 23C68.8245 23 66.1176 19.9885 66.1176 15.6354C66.1176 11.2824 68.8245 8.27089 73.3168 8.27089C77.7803 8.27089 80.4872 11.2824 80.4872 15.6354C80.4872 19.9885 77.7803 23 73.3168 23ZM73.3168 21.0836C76.5996 21.0836 78.1834 18.6196 78.1834 15.6354C78.1834 12.6513 76.5996 10.1873 73.3168 10.1873C70.0051 10.1873 68.4213 12.6513 68.4213 15.6354C68.4213 18.6196 70.0051 21.0836 73.3168 21.0836Z" fill="#DDEAFA" fill-opacity="0.92"/>
<path d="M99.1621 8.27089C96.9448 8.27089 95.4185 9.36599 94.4107 10.6801H94.3531C93.7483 9.1196 92.5389 8.27089 90.4367 8.27089C88.2193 8.27089 86.9523 9.33862 86.1748 10.3242H86.1172V8.65418H83.8134V22.6167H86.1172V13.9107C86.1172 11.7478 87.557 10.1873 89.8608 10.1873C92.1645 10.1873 92.5389 11.6109 92.5389 13.4179V22.6167H94.8426V13.9107C94.8426 11.7478 96.2824 10.1873 98.5862 10.1873C100.89 10.1873 101.264 11.6109 101.264 13.4179V22.6167H103.568V12.8703C103.568 9.94092 102.128 8.27089 99.1621 8.27089Z" fill="#DDEAFA" fill-opacity="0.92"/>
<path d="M113.897 21.0836C110.701 21.0836 109.117 18.7291 109.117 16.2104H120.722C120.722 11.255 118.476 8.27089 113.869 8.27089C109.578 8.27089 106.813 10.9813 106.813 15.6354C106.813 20.0158 109.52 23 113.984 23C117.641 23 119.743 20.9193 120.492 18.3184H118.188C117.929 19.2767 116.835 21.0836 113.897 21.0836ZM113.869 10.1873C116.633 10.1873 118.418 12.049 118.418 14.2939H109.117C109.117 12.049 111.104 10.1873 113.869 10.1873Z" fill="#DDEAFA" fill-opacity="0.92"/>
<path d="M122.35 8.65418L127.534 15.4712L121.861 22.6167H124.596L128.887 16.9222H128.945L133.264 22.6167H136L130.298 15.4712L135.482 8.65418H132.746L128.945 13.9928H128.887L125.086 8.65418H122.35Z" fill="#DDEAFA" fill-opacity="0.92"/>
<ellipse cx="15.1105" cy="4.81752" rx="4.81752" ry="4.81752" fill="#DDEAFA" fill-opacity="0.92"/>
<circle cx="4.48905" cy="19.3797" r="4.48905" fill="#DDEAFA" fill-opacity="0.92"/>
<circle cx="22.5552" cy="23.8677" r="6.13139" fill="#DDEAFA" fill-opacity="0.92"/>
<path d="M10.728 10.157C10.958 9.85891 11.3862 9.80369 11.6843 10.0337V10.0337C11.9825 10.2637 12.0377 10.6919 11.8076 10.99L9.03591 14.5825C8.80589 14.8806 8.37773 14.9359 8.0796 14.7058V14.7058C7.78146 14.4758 7.72624 14.0477 7.95627 13.7495L10.728 10.157Z" fill="#DDEAFA" fill-opacity="0.92"/>
<rect x="16.6211" y="10.7324" width="1.36364" height="6.01973" rx="0.681818" transform="rotate(-21.1557 16.6211 10.7324)" fill="#DDEAFA" fill-opacity="0.92"/>
<path d="M10.4055 21.1876C10.0435 21.084 9.83398 20.7065 9.93757 20.3445V20.3445C10.0412 19.9825 10.4186 19.773 10.7807 19.8766L15.2571 21.1575C15.6191 21.2611 15.8286 21.6385 15.725 22.0006V22.0006C15.6214 22.3626 15.244 22.5721 14.8819 22.4685L10.4055 21.1876Z" fill="#DDEAFA" fill-opacity="0.92"/>
</svg>
