<svg width="9" height="14" viewBox="0 0 9 14" fill="none" xmlns="http://www.w3.org/2000/svg">
<path fill-rule="evenodd" clip-rule="evenodd" d="M1.20763 0H7.17265C7.49282 0.000371467 7.79976 0.12562 8.02615 0.34827C8.25255 0.57092 8.3799 0.872792 8.38028 1.18767V12.8123C8.3799 13.1272 8.25255 13.4291 8.02615 13.6517C7.79976 13.8744 7.49282 13.9996 7.17265 14H1.20763C0.887461 13.9996 0.580515 13.8744 0.354123 13.6517C0.127731 13.4291 0.00037771 13.1272 0 12.8123V1.18767C0.00037771 0.872792 0.127731 0.57092 0.354123 0.34827C0.580515 0.12562 0.887461 0.000371467 1.20763 0ZM7.72157 2.37533H0.658706V11.1928H7.72157V2.37533ZM7.17265 0.647818H1.20763C1.0621 0.64799 0.922579 0.704922 0.819674 0.806126C0.716769 0.90733 0.65888 1.04454 0.658706 1.18767V1.72752H7.72157V1.18767C7.7214 1.04454 7.66351 0.90733 7.5606 0.806126C7.4577 0.704922 7.31818 0.64799 7.17265 0.647818ZM1.20763 13.3522H7.17265C7.31818 13.352 7.4577 13.2951 7.5606 13.1939C7.66351 13.0927 7.7214 12.9555 7.72157 12.8123V11.8406H0.658706V12.8123C0.65888 12.9555 0.716769 13.0927 0.819674 13.1939C0.922579 13.2951 1.0621 13.352 1.20763 13.3522ZM3.84302 12.2734H4.53839C4.62574 12.2734 4.70952 12.3076 4.77128 12.3683C4.83305 12.4291 4.86775 12.5114 4.86775 12.5973C4.86775 12.6832 4.83305 12.7656 4.77128 12.8264C4.70952 12.8871 4.62574 12.9213 4.53839 12.9213H3.84302C3.75567 12.9213 3.6719 12.8871 3.61014 12.8264C3.54837 12.7656 3.51367 12.6832 3.51367 12.5973C3.51367 12.5114 3.54837 12.4291 3.61014 12.3683C3.6719 12.3076 3.75567 12.2734 3.84302 12.2734Z" fill="#C4DEFF" fill-opacity="0.72"/>
</svg>
