<svg width="24" height="24" viewBox="0 0 24 24" fill="none" xmlns="http://www.w3.org/2000/svg">
<path fill-rule="evenodd" clip-rule="evenodd" d="M8.21053 3L3 3V3.94737H3.00055L3.00055 8.21051C3.00055 8.47212 3.21262 8.68419 3.47423 8.68419C3.73584 8.68419 3.94792 8.47212 3.94792 8.21051L3.94792 3.94737L8.21053 3.94737C8.47214 3.94737 8.68421 3.73529 8.68421 3.47368C8.68421 3.21208 8.47214 3 8.21053 3ZM15.7895 3L21 3V3.94737H20.9995V8.21051C20.9995 8.47212 20.7874 8.68419 20.5258 8.68419C20.2642 8.68419 20.0521 8.47212 20.0521 8.21051V3.94737L15.7895 3.94737C15.5279 3.94737 15.3158 3.73529 15.3158 3.47368C15.3158 3.21208 15.5279 3 15.7895 3ZM3 21H8.21053C8.47214 21 8.68421 20.7879 8.68421 20.5263C8.68421 20.2647 8.47214 20.0526 8.21053 20.0526H3.94792L3.94792 15.7895C3.94792 15.5279 3.73584 15.3158 3.47423 15.3158C3.21262 15.3158 3.00055 15.5279 3.00055 15.7895L3.00055 20.0526H3L3 21ZM15.7895 21H21V20.0526H20.9995V15.7895C20.9995 15.5279 20.7874 15.3158 20.5258 15.3158C20.2642 15.3158 20.0521 15.5279 20.0521 15.7895V20.0526H15.7895C15.5279 20.0526 15.3158 20.2647 15.3158 20.5263C15.3158 20.7879 15.5279 21 15.7895 21ZM6.40957 5.84212C6.03062 5.84212 5.84115 6.0316 5.84115 6.41054L5.84115 10.9579C5.84115 11.1474 6.03062 11.5263 6.40957 11.5263L10.9569 11.5263C11.1464 11.5263 11.5254 11.3369 11.5254 10.9579L11.5254 6.41054C11.5254 6.22107 11.3359 5.84212 10.9569 5.84212L6.40957 5.84212ZM6.78851 6.78949L10.578 6.78949V10.579H6.78851L6.78851 6.78949ZM6.40963 12.474C6.03068 12.474 5.84121 12.6635 5.84121 13.0424V17.5898C5.84121 17.7793 6.03068 18.1582 6.40963 18.1582H10.957C11.1465 18.1582 11.5254 17.9687 11.5254 17.5898V13.0424C11.5254 12.853 11.3359 12.474 10.957 12.474L6.40963 12.474ZM6.78858 13.4214L10.5781 13.4214L10.5781 17.2109H6.78858V13.4214ZM12.474 6.41087C12.474 6.03192 12.6634 5.84245 13.0424 5.84245H17.5897C17.9687 5.84245 18.1582 6.2214 18.1582 6.41087V10.9582C18.1582 11.3372 17.7792 11.5267 17.5897 11.5267H13.0424C12.6634 11.5267 12.474 11.1477 12.474 10.9582L12.474 6.41087ZM17.2108 6.78982H13.4213L13.4213 10.5793L17.2108 10.5793V6.78982ZM13.0424 12.474C12.6634 12.474 12.474 12.6634 12.474 13.0424V17.5897C12.474 17.7792 12.6634 18.1582 13.0424 18.1582H17.5897C17.7792 18.1582 18.1582 17.9687 18.1582 17.5897V13.0424C18.1582 12.8529 17.9687 12.474 17.5897 12.474H13.0424ZM13.4213 13.4213H17.2108V17.2108H13.4213V13.4213Z" fill="#DDEAFA" fill-opacity="0.92"/>
</svg>
