<svg width="12" height="12" viewBox="0 0 12 12" fill="none" xmlns="http://www.w3.org/2000/svg">
<path d="M10.113 5.84069C9.96831 5.84069 9.82958 5.89815 9.72729 6.00044C9.62501 6.10273 9.56755 6.24146 9.56755 6.38611V10.0786H1.59084V2.39553H5.13329C5.27794 2.39553 5.41667 2.33806 5.51896 2.23577C5.62124 2.13349 5.67871 1.99476 5.67871 1.85011C5.67871 1.70545 5.62124 1.56672 5.51896 1.46444C5.41667 1.36215 5.27794 1.30469 5.13329 1.30469H1.04542C0.900765 1.30469 0.762035 1.36215 0.659749 1.46444C0.557463 1.56672 0.5 1.70545 0.5 1.85011V10.624C0.5 10.7687 0.557463 10.9074 0.659749 11.0097C0.762035 11.112 0.900765 11.1694 1.04542 11.1694H10.113C10.2576 11.1694 10.3963 11.112 10.4986 11.0097C10.6009 10.9074 10.6584 10.7687 10.6584 10.624V6.38611C10.6584 6.24146 10.6009 6.10273 10.4986 6.00044C10.3963 5.89815 10.2576 5.84069 10.113 5.84069Z" fill="#00D7CB"/>
<path d="M10.6171 1.00046H8.14823C8.05151 1.00046 7.95876 1.03889 7.89037 1.1073C7.82198 1.17571 7.78356 1.26849 7.78356 1.36523C7.78356 1.46198 7.82198 1.55476 7.89037 1.62317C7.95876 1.69158 8.05151 1.73001 8.14823 1.73001H9.75281L6.10605 5.37777C6.03812 5.44611 6 5.53856 6 5.63493C6 5.7313 6.03812 5.82375 6.10605 5.8921C6.13995 5.92629 6.18028 5.95343 6.22472 5.97195C6.26916 5.99046 6.31682 6 6.36497 6C6.41311 6 6.46077 5.99046 6.50521 5.97195C6.54965 5.95343 6.58998 5.92629 6.62389 5.8921L10.2706 2.24434V3.81288C10.2706 3.90962 10.3091 4.0024 10.3775 4.07081C10.4458 4.13922 10.5386 4.17765 10.6353 4.17765C10.732 4.17765 10.8248 4.13922 10.8932 4.07081C10.9616 4.0024 11 3.90962 11 3.81288V1.36523C11.0001 1.31575 10.9901 1.26678 10.9706 1.22129C10.9511 1.1758 10.9226 1.13475 10.8868 1.10063C10.851 1.06651 10.8086 1.04003 10.7623 1.02281C10.7159 1.00559 10.6665 0.997982 10.6171 1.00046Z" fill="#00D7CB"/>
</svg>
